<svg width="16" height="16" viewBox="0 0 16 16" fill="none" xmlns="http://www.w3.org/2000/svg">
<path fill-rule="evenodd" clip-rule="evenodd" d="M8.00016 14.6668C11.6821 14.6668 14.6668 11.6821 14.6668 8.00016C14.6668 4.31826 11.6821 1.3335 8.00016 1.3335C4.31826 1.3335 1.3335 4.31826 1.3335 8.00016C1.3335 11.6821 4.31826 14.6668 8.00016 14.6668ZM12.2134 11.2706C12.9154 10.3675 13.3335 9.23266 13.3335 8.00016C13.3335 5.28042 11.2977 3.03616 8.66683 2.70809V5.41751C9.81698 5.71354 10.6668 6.7576 10.6668 8.00016C10.6668 8.49473 10.5322 8.95785 10.2976 9.35487L12.2134 11.2706ZM11.2705 12.2134L9.35474 10.2977C8.95775 10.5322 8.49468 10.6668 8.00016 10.6668C7.50565 10.6668 7.04258 10.5322 6.64558 10.2977L4.72979 12.2134C5.6329 12.9155 6.76771 13.3335 8.00016 13.3335C9.23261 13.3335 10.3674 12.9155 11.2705 12.2134ZM5.3335 8.00016C5.3335 8.49473 5.46813 8.95785 5.70275 9.35487L3.78697 11.2706C3.0849 10.3675 2.66683 9.23266 2.66683 8.00016C2.66683 5.28042 4.70262 3.03616 7.3335 2.70809V5.41751C6.18334 5.71354 5.3335 6.7576 5.3335 8.00016ZM8.00016 9.3335C8.73654 9.3335 9.3335 8.73654 9.3335 8.00016C9.3335 7.26378 8.73654 6.66683 8.00016 6.66683C7.26378 6.66683 6.66683 7.26378 6.66683 8.00016C6.66683 8.73654 7.26378 9.3335 8.00016 9.3335Z" fill="#FCFCFD"/>
</svg>
