<svg width="16" height="16" viewBox="0 0 16 16" fill="none" xmlns="http://www.w3.org/2000/svg">
<path fill-rule="evenodd" clip-rule="evenodd" d="M10.6668 8.00016C10.6668 9.47292 9.47292 10.6668 8.00016 10.6668C6.5274 10.6668 5.3335 9.47292 5.3335 8.00016C5.3335 6.5274 6.5274 5.3335 8.00016 5.3335C9.47292 5.3335 10.6668 6.5274 10.6668 8.00016ZM9.3335 8.00016C9.3335 8.73654 8.73654 9.3335 8.00016 9.3335C7.26378 9.3335 6.66683 8.73654 6.66683 8.00016C6.66683 7.26378 7.26378 6.66683 8.00016 6.66683C8.73654 6.66683 9.3335 7.26378 9.3335 8.00016Z" fill="#FCFCFD"/>
<path fill-rule="evenodd" clip-rule="evenodd" d="M14.6668 8.00016C14.6668 11.6821 11.6821 14.6668 8.00016 14.6668C4.31826 14.6668 1.3335 11.6821 1.3335 8.00016C1.3335 4.31826 4.31826 1.3335 8.00016 1.3335C11.6821 1.3335 14.6668 4.31826 14.6668 8.00016ZM13.3335 8.00016C13.3335 10.9457 10.9457 13.3335 8.00016 13.3335C5.05464 13.3335 2.66683 10.9457 2.66683 8.00016C2.66683 5.05464 5.05464 2.66683 8.00016 2.66683C10.9457 2.66683 13.3335 5.05464 13.3335 8.00016Z" fill="#FCFCFD"/>
<path d="M4.03407 3.12253C4.1505 2.77324 4.52804 2.58446 4.87734 2.7009L6.87734 3.36756C7.22664 3.48399 7.41541 3.86154 7.29898 4.21084C7.18255 4.56013 6.805 4.74891 6.4557 4.63247L4.4557 3.96581C4.10641 3.84938 3.91763 3.47183 4.03407 3.12253Z" fill="#FCFCFD"/>
<path d="M4.0702 7.03517C4.23486 6.70585 4.63531 6.57237 4.96463 6.73703L6.29796 7.4037C6.62728 7.56836 6.76076 7.96881 6.59611 8.29813C6.43145 8.62744 6.031 8.76093 5.70168 8.59627L4.36834 7.9296C4.03903 7.76494 3.90554 7.36449 4.0702 7.03517Z" fill="#FCFCFD"/>
<path d="M9.13791 13.1381C9.39826 12.8777 9.39826 12.4556 9.13791 12.1953C8.87756 11.9349 8.45545 11.9349 8.1951 12.1953L7.1951 13.1953C6.93475 13.4556 6.93475 13.8777 7.1951 14.1381C7.45545 14.3984 7.87756 14.3984 8.13791 14.1381L9.13791 13.1381Z" fill="#FCFCFD"/>
<path d="M9.1951 9.19526C9.45545 8.93491 9.87756 8.93491 10.1379 9.19526L10.4712 9.52859C10.7316 9.78894 10.7316 10.2111 10.4712 10.4714C10.2109 10.7318 9.78878 10.7318 9.52843 10.4714L9.1951 10.1381C8.93475 9.87772 8.93475 9.45561 9.1951 9.19526Z" fill="#FCFCFD"/>
<path d="M5.26277 10.9648C5.42743 10.6355 5.29395 10.235 4.96463 10.0704C4.63531 9.90571 4.23486 10.0392 4.0702 10.3685L3.40354 11.7018C3.23888 12.0312 3.37236 12.4316 3.70168 12.5963C4.031 12.7609 4.43145 12.6274 4.59611 12.2981L5.26277 10.9648Z" fill="#FCFCFD"/>
<path d="M14.5961 7.70184C14.7608 8.03116 14.6273 8.43161 14.298 8.59627L12.9646 9.26293C12.6353 9.42759 12.2349 9.29411 12.0702 8.96479C11.9055 8.63547 12.039 8.23502 12.3683 8.07036L13.7017 7.4037C14.031 7.23904 14.4314 7.37252 14.5961 7.70184Z" fill="#FCFCFD"/>
<path d="M10.6323 5.54417C10.7487 5.19487 10.56 4.81733 10.2107 4.7009C9.86138 4.58446 9.48383 4.77324 9.3674 5.12253L9.03407 6.12253C8.91763 6.47183 9.10641 6.84937 9.4557 6.96581C9.805 7.08224 10.1825 6.89347 10.299 6.54417L10.6323 5.54417Z" fill="#FCFCFD"/>
</svg>
